<?xml version="1.0" standalone="no"?>
<!DOCTYPE svg PUBLIC "-//W3C//DTD SVG 20010904//EN"
 "http://www.w3.org/TR/2001/REC-SVG-20010904/DTD/svg10.dtd">
<svg version="1.0" xmlns="http://www.w3.org/2000/svg"
 width="1024.000000pt" height="1024.000000pt" viewBox="0 0 1024.000000 1024.000000"
 preserveAspectRatio="xMidYMid meet">

<g transform="translate(0.000000,1024.000000) scale(0.100000,-0.100000)"
fill="#000000" stroke="none">
<path d="M4117 9320 c-410 -46 -784 -319 -974 -710 -133 -275 -182 -525 -190
-971 l-5 -287 -122 -81 c-271 -180 -536 -414 -699 -616 -269 -333 -445 -734
-513 -1165 -28 -176 -26 -549 4 -725 68 -399 207 -726 442 -1040 94 -126 354
-387 485 -486 401 -305 861 -498 1435 -603 338 -62 624 -81 1235 -81 611 0
897 19 1235 81 574 105 1034 298 1435 603 131 99 391 360 485 486 235 314 374
641 442 1040 30 176 32 549 4 725 -68 431 -244 832 -513 1165 -163 202 -428
436 -699 616 l-122 81 -5 287 c-5 300 -21 451 -66 628 -117 456 -361 771 -732
948 -316 149 -676 146 -984 -8 -160 -80 -303 -199 -416 -349 -32 -43 -62 -77
-66 -76 -4 2 -33 37 -64 78 -178 235 -431 396 -703 445 -110 19 -236 25 -329
15z m240 -495 c236 -44 423 -223 536 -510 39 -100 77 -234 77 -275 0 -40 56
-144 95 -179 70 -61 201 -68 278 -15 48 34 104 121 112 173 53 345 232 639
456 750 193 95 398 90 600 -16 236 -122 386 -365 451 -723 16 -90 22 -172 25
-377 3 -144 3 -277 -1 -296 -5 -26 -15 -37 -44 -51 -187 -89 -354 -265 -458
-481 -100 -209 -138 -386 -139 -652 0 -163 -2 -183 -16 -183 -44 0 -207 57
-314 110 -196 96 -382 254 -557 472 -91 113 -150 151 -237 152 -94 1 -156 -36
-248 -151 -176 -219 -362 -377 -558 -473 -107 -53 -270 -110 -314 -110 -14 0
-16 20 -16 183 -1 266 -39 443 -139 652 -104 216 -271 392 -458 481 -29 14
-39 25 -44 51 -4 19 -4 152 -1 296 3 205 9 287 25 377 65 358 216 601 451 723
153 80 284 101 438 72z m943 -2807 c142 -135 386 -318 426 -318 8 0 64 -24
126 -54 146 -70 196 -90 293 -115 99 -26 246 -51 294 -51 20 0 41 -4 47 -8 6
-4 27 -38 47 -77 194 -382 532 -639 968 -737 89 -20 131 -23 294 -23 172 1
200 3 295 27 58 15 130 36 159 48 30 11 55 19 57 17 5 -5 -30 -129 -67 -232
-185 -525 -656 -976 -1264 -1210 -315 -122 -639 -190 -1080 -227 -204 -17
-1156 -17 -1360 0 -441 37 -765 105 -1080 227 -608 234 -1079 685 -1264 1210
-37 103 -72 227 -67 232 2 2 27 -6 57 -17 29 -12 101 -33 159 -48 95 -24 123
-26 295 -27 163 0 205 3 294 23 436 98 774 355 968 737 20 39 40 73 45 76 5 3
42 9 81 12 272 23 619 155 855 323 97 71 322 269 322 285 0 19 17 7 100 -73z"/>
<path d="M4181 8410 c-171 -36 -313 -180 -356 -361 -17 -75 -20 -256 -4 -328
20 -94 98 -129 161 -72 35 31 33 16 28 212 -5 170 45 280 147 330 60 29 152
32 201 6 75 -40 124 -153 141 -326 13 -119 23 -145 67 -166 42 -20 77 -11 109
27 22 26 25 39 25 106 0 113 -32 253 -80 348 -49 99 -122 172 -205 203 -65 24
-172 34 -234 21z"/>
<path d="M6060 8409 c-117 -23 -216 -106 -276 -233 -42 -88 -74 -233 -74 -338
0 -67 3 -80 25 -106 32 -38 67 -47 109 -27 44 21 54 47 67 166 17 173 66 286
141 326 49 26 141 23 201 -6 102 -50 152 -160 147 -330 -5 -196 -7 -181 28
-212 63 -57 141 -22 161 72 16 72 13 253 -4 328 -59 249 -289 406 -525 360z"/>
<path d="M3455 2089 c-21 -5 -43 -15 -47 -22 -4 -6 -8 -346 -8 -754 l0 -743
26 -17 c21 -14 48 -17 128 -17 56 1 113 6 128 12 l28 11 2 383 3 382 244 -383
c161 -254 251 -385 266 -391 66 -25 270 -19 298 9 25 25 -13 94 -249 450
l-244 371 208 272 c292 382 297 391 246 425 -22 14 -48 18 -133 18 -66 0 -117
-5 -136 -13 -23 -10 -86 -95 -260 -349 -126 -184 -233 -337 -237 -340 -5 -2
-8 149 -8 336 0 334 0 341 -21 351 -28 15 -185 22 -234 9z"/>
<path d="M4775 2065 l-25 -24 0 -724 c0 -699 1 -726 19 -748 l19 -24 419 -3
c492 -3 453 -14 453 120 0 128 26 118 -310 118 l-290 0 0 225 0 225 245 0
c284 0 265 -8 265 115 0 123 19 115 -265 115 l-245 0 0 195 0 195 284 0 c252
0 285 2 297 17 18 21 18 169 1 201 l-13 22 -415 0 -415 0 -24 -25z"/>
<path d="M5973 2066 l-28 -24 -3 -729 c-2 -599 0 -732 11 -747 18 -25 104 -38
196 -30 118 10 111 -10 111 344 l0 300 50 0 c185 0 230 -50 380 -428 40 -101
79 -189 86 -197 18 -17 138 -29 216 -20 93 10 98 12 98 47 0 38 -179 462 -225
533 -33 51 -116 135 -135 135 -25 0 -5 17 46 39 80 35 157 109 196 189 32 64
33 71 33 187 0 116 -1 123 -32 186 -40 81 -102 140 -188 181 -103 48 -186 57
-502 58 l-282 0 -28 -24z m612 -247 c71 -36 100 -90 100 -184 0 -94 -31 -149
-107 -190 -49 -27 -62 -30 -185 -33 l-133 -4 0 222 0 222 138 -4 c124 -3 142
-5 187 -29z"/>
</g>
</svg>
