<svg xmlns="http://www.w3.org/2000/svg" xmlns:xlink="http://www.w3.org/1999/xlink" version="1.1" width="1000" height="1000" viewBox="0 0 1000 1000" xml:space="preserve">
<desc>Created with Fabric.js 3.5.0</desc>
<defs>
</defs>
<rect x="0" y="0" width="100%" height="100%" fill="rgba(255,255,255,0)"/>
<g transform="matrix(1.0058 0 0 1.0058 486.3211 613.3336)" id="33094">
<g style="" vector-effect="non-scaling-stroke">
		<g transform="matrix(0.1333 0 0 -0.1333 12.4793 -109.4983)">
<path style="stroke: none; stroke-width: 0; stroke-dasharray: none; stroke-linecap: butt; stroke-dashoffset: 0; stroke-linejoin: miter; stroke-miterlimit: 4; is-custom-font: none; font-file-url: none; fill: rgb(0,0,0); fill-rule: nonzero; opacity: 1;" transform=" translate(-5215, -5939.8917)" d="M 4117 9320 c -410 -46 -784 -319 -974 -710 c -133 -275 -182 -525 -190 -971 l -5 -287 l -122 -81 c -271 -180 -536 -414 -699 -616 c -269 -333 -445 -734 -513 -1165 c -28 -176 -26 -549 4 -725 c 68 -399 207 -726 442 -1040 c 94 -126 354 -387 485 -486 c 401 -305 861 -498 1435 -603 c 338 -62 624 -81 1235 -81 c 611 0 897 19 1235 81 c 574 105 1034 298 1435 603 c 131 99 391 360 485 486 c 235 314 374 641 442 1040 c 30 176 32 549 4 725 c -68 431 -244 832 -513 1165 c -163 202 -428 436 -699 616 l -122 81 l -5 287 c -5 300 -21 451 -66 628 c -117 456 -361 771 -732 948 c -316 149 -676 146 -984 -8 c -160 -80 -303 -199 -416 -349 c -32 -43 -62 -77 -66 -76 c -4 2 -33 37 -64 78 c -178 235 -431 396 -703 445 c -110 19 -236 25 -329 15 z m 240 -495 c 236 -44 423 -223 536 -510 c 39 -100 77 -234 77 -275 c 0 -40 56 -144 95 -179 c 70 -61 201 -68 278 -15 c 48 34 104 121 112 173 c 53 345 232 639 456 750 c 193 95 398 90 600 -16 c 236 -122 386 -365 451 -723 c 16 -90 22 -172 25 -377 c 3 -144 3 -277 -1 -296 c -5 -26 -15 -37 -44 -51 c -187 -89 -354 -265 -458 -481 c -100 -209 -138 -386 -139 -652 c 0 -163 -2 -183 -16 -183 c -44 0 -207 57 -314 110 c -196 96 -382 254 -557 472 c -91 113 -150 151 -237 152 c -94 1 -156 -36 -248 -151 c -176 -219 -362 -377 -558 -473 c -107 -53 -270 -110 -314 -110 c -14 0 -16 20 -16 183 c -1 266 -39 443 -139 652 c -104 216 -271 392 -458 481 c -29 14 -39 25 -44 51 c -4 19 -4 152 -1 296 c 3 205 9 287 25 377 c 65 358 216 601 451 723 c 153 80 284 101 438 72 z m 943 -2807 c 142 -135 386 -318 426 -318 c 8 0 64 -24 126 -54 c 146 -70 196 -90 293 -115 c 99 -26 246 -51 294 -51 c 20 0 41 -4 47 -8 c 6 -4 27 -38 47 -77 c 194 -382 532 -639 968 -737 c 89 -20 131 -23 294 -23 c 172 1 200 3 295 27 c 58 15 130 36 159 48 c 30 11 55 19 57 17 c 5 -5 -30 -129 -67 -232 c -185 -525 -656 -976 -1264 -1210 c -315 -122 -639 -190 -1080 -227 c -204 -17 -1156 -17 -1360 0 c -441 37 -765 105 -1080 227 c -608 234 -1079 685 -1264 1210 c -37 103 -72 227 -67 232 c 2 2 27 -6 57 -17 c 29 -12 101 -33 159 -48 c 95 -24 123 -26 295 -27 c 163 0 205 3 294 23 c 436 98 774 355 968 737 c 20 39 40 73 45 76 c 5 3 42 9 81 12 c 272 23 619 155 855 323 c 97 71 322 269 322 285 c 0 19 17 7 100 -73 z" stroke-linecap="round"/>
</g>
		<g transform="matrix(0.1333 0 0 -0.1333 -115.3824 -386.5581)">
<path style="stroke: none; stroke-width: 0; stroke-dasharray: none; stroke-linecap: butt; stroke-dashoffset: 0; stroke-linejoin: miter; stroke-miterlimit: 4; is-custom-font: none; font-file-url: none; fill: rgb(0,0,0); fill-rule: nonzero; opacity: 1;" transform=" translate(-4255.2433, -8018.5867)" d="M 4181 8410 c -171 -36 -313 -180 -356 -361 c -17 -75 -20 -256 -4 -328 c 20 -94 98 -129 161 -72 c 35 31 33 16 28 212 c -5 170 45 280 147 330 c 60 29 152 32 201 6 c 75 -40 124 -153 141 -326 c 13 -119 23 -145 67 -166 c 42 -20 77 -11 109 27 c 22 26 25 39 25 106 c 0 113 -32 253 -80 348 c -49 99 -122 172 -205 203 c -65 24 -172 34 -234 21 z" stroke-linecap="round"/>
</g>
		<g transform="matrix(0.1333 0 0 -0.1333 137.8861 -386.6418)">
<path style="stroke: none; stroke-width: 0; stroke-dasharray: none; stroke-linecap: butt; stroke-dashoffset: 0; stroke-linejoin: miter; stroke-miterlimit: 4; is-custom-font: none; font-file-url: none; fill: rgb(0,0,0); fill-rule: nonzero; opacity: 1;" transform=" translate(-6154.7567, -8019.2138)" d="M 6060 8409 c -117 -23 -216 -106 -276 -233 c -42 -88 -74 -233 -74 -338 c 0 -67 3 -80 25 -106 c 32 -38 67 -47 109 -27 c 44 21 54 47 67 166 c 17 173 66 286 141 326 c 49 26 141 23 201 -6 c 102 -50 152 -160 147 -330 c -5 -196 -7 -181 28 -212 c 63 -57 141 -22 161 72 c 16 72 13 253 -4 328 c -59 249 -289 406 -525 360 z" stroke-linecap="round"/>
</g>
		<g transform="matrix(0.1333 0 0 -0.1333 -154.1105 507.237)">
<path style="stroke: none; stroke-width: 0; stroke-dasharray: none; stroke-linecap: butt; stroke-dashoffset: 0; stroke-linejoin: miter; stroke-miterlimit: 4; is-custom-font: none; font-file-url: none; fill: rgb(0,0,0); fill-rule: nonzero; opacity: 1;" transform=" translate(-3964.8128, -1315.0276)" d="M 3455 2089 c -21 -5 -43 -15 -47 -22 c -4 -6 -8 -346 -8 -754 l 0 -743 l 26 -17 c 21 -14 48 -17 128 -17 c 56 1 113 6 128 12 l 28 11 l 2 383 l 3 382 l 244 -383 c 161 -254 251 -385 266 -391 c 66 -25 270 -19 298 9 c 25 25 -13 94 -249 450 l -244 371 l 208 272 c 292 382 297 391 246 425 c -22 14 -48 18 -133 18 c -66 0 -117 -5 -136 -13 c -23 -10 -86 -95 -260 -349 c -126 -184 -233 -337 -237 -340 c -5 -2 -8 149 -8 336 c 0 334 0 341 -21 351 c -28 15 -185 22 -234 9 z" stroke-linecap="round"/>
</g>
		<g transform="matrix(0.1333 0 0 -0.1333 11.3002 507.2099)">
<path style="stroke: none; stroke-width: 0; stroke-dasharray: none; stroke-linecap: butt; stroke-dashoffset: 0; stroke-linejoin: miter; stroke-miterlimit: 4; is-custom-font: none; font-file-url: none; fill: rgb(0,0,0); fill-rule: nonzero; opacity: 1;" transform=" translate(-5205.3652, -1315.2319)" d="M 4775 2065 l -25 -24 l 0 -724 c 0 -699 1 -726 19 -748 l 19 -24 l 419 -3 c 492 -3 453 -14 453 120 c 0 128 26 118 -310 118 l -290 0 l 0 225 l 0 225 l 245 0 c 284 0 265 -8 265 115 c 0 123 19 115 -265 115 l -245 0 l 0 195 l 0 195 l 284 0 c 252 0 285 2 297 17 c 18 21 18 169 1 201 l -13 22 l -415 0 l -415 0 l -24 -25 z" stroke-linecap="round"/>
</g>
		<g transform="matrix(0.1333 0 0 -0.1333 186.0018 507.7789)">
<path style="stroke: none; stroke-width: 0; stroke-dasharray: none; stroke-linecap: butt; stroke-dashoffset: 0; stroke-linejoin: miter; stroke-miterlimit: 4; is-custom-font: none; font-file-url: none; fill: rgb(0,0,0); fill-rule: nonzero; opacity: 1;" transform=" translate(-6515.657, -1310.9633)" d="M 5973 2066 l -28 -24 l -3 -729 c -2 -599 0 -732 11 -747 c 18 -25 104 -38 196 -30 c 118 10 111 -10 111 344 l 0 300 l 50 0 c 185 0 230 -50 380 -428 c 40 -101 79 -189 86 -197 c 18 -17 138 -29 216 -20 c 93 10 98 12 98 47 c 0 38 -179 462 -225 533 c -33 51 -116 135 -135 135 c -25 0 -5 17 46 39 c 80 35 157 109 196 189 c 32 64 33 71 33 187 c 0 116 -1 123 -32 186 c -40 81 -102 140 -188 181 c -103 48 -186 57 -502 58 l -282 0 l -28 -24 z m 612 -247 c 71 -36 100 -90 100 -184 c 0 -94 -31 -149 -107 -190 c -49 -27 -62 -30 -185 -33 l -133 -4 l 0 222 l 0 222 l 138 -4 c 124 -3 142 -5 187 -29 z" stroke-linecap="round"/>
</g>
</g>
</g>
</svg>